<svg width="1280" height="640" viewBox="0 0 1280 640" fill="none" xmlns="http://www.w3.org/2000/svg">
  <defs>
    <linearGradient id="bg" x1="0" y1="0" x2="1280" y2="640" gradientUnits="userSpaceOnUse">
      <stop stop-color="#0F172A"/>
      <stop offset="1" stop-color="#0E7490"/>
    </linearGradient>
  </defs>
  <rect width="1280" height="640" fill="url(#bg)"/>

  <g opacity="0.18" stroke="#E2E8F0" stroke-width="2">
    <path d="M700 170H1170"/>
    <path d="M700 240H1170"/>
    <path d="M700 310H1170"/>
    <path d="M700 380H1170"/>
    <path d="M700 450H1170"/>
  </g>

  <g opacity="0.95" fill="none" stroke-linecap="round" stroke-linejoin="round">
    <path d="M720 430L820 330L900 370L1000 250L1130 300" stroke="#F59E0B" stroke-width="8"/>
    <circle cx="720" cy="430" r="10" fill="#F59E0B"/>
    <circle cx="820" cy="330" r="10" fill="#F59E0B"/>
    <circle cx="900" cy="370" r="10" fill="#F59E0B"/>
    <circle cx="1000" cy="250" r="10" fill="#F59E0B"/>
    <circle cx="1130" cy="300" r="10" fill="#F59E0B"/>
  </g>

  <g fill="#E2E8F0">
    <text x="80" y="220" font-family="Sora, Inter, Arial, sans-serif" font-size="56" font-weight="700">Önder Kaygusuz</text>
    <text x="80" y="280" font-family="Inter, Arial, sans-serif" font-size="30" font-weight="500">Proses Mühendisliği Yöneticisi · İK Lideri · ISO 9001 Baş Denetçisi</text>
    <text x="80" y="340" font-family="Inter, Arial, sans-serif" font-size="22" font-weight="400" opacity="0.9">Süreç + İnsan + Dönüşüm</text>
  </g>

  <g transform="translate(80 390)">
    <rect width="220" height="220" rx="36" fill="#F8FAFC"/>
    <g transform="translate(20 20)">
      <path d="M15 90C15 48.5786 48.5786 15 90 15V165C48.5786 165 15 131.421 15 90Z" fill="#0F172A"/>
      <path d="M102 47H122C145.196 47 164 65.804 164 89C164 112.196 145.196 131 122 131H102" stroke="#0F172A" stroke-width="13" stroke-linecap="round"/>
      <path d="M90 58C78.0903 58 68.5 72.0589 68.5 89.5C68.5 106.941 78.0903 121 90 121" stroke="#F8FAFC" stroke-width="10" stroke-linecap="round"/>
      <circle cx="68.5" cy="73" r="5.2" fill="#F59E0B"/>
      <circle cx="68.5" cy="105" r="5.2" fill="#F59E0B"/>
      <circle cx="112" cy="89.5" r="5.2" fill="#F59E0B"/>
    </g>
  </g>
</svg>
