<svg width="1200" height="320" viewBox="0 0 1200 320" fill="none" xmlns="http://www.w3.org/2000/svg" role="img" aria-label="Connected roots network">
  <defs>
    <linearGradient id="g" x1="80" y1="0" x2="1120" y2="320" gradientUnits="userSpaceOnUse">
      <stop stop-color="#0F172A"/>
      <stop offset="0.5" stop-color="#0E7490"/>
      <stop offset="1" stop-color="#F59E0B"/>
    </linearGradient>
    <filter id="glow" x="-20%" y="-20%" width="140%" height="140%">
      <feGaussianBlur stdDeviation="2.5" result="b"/>
      <feMerge>
        <feMergeNode in="b"/>
        <feMergeNode in="SourceGraphic"/>
      </feMerge>
    </filter>
  </defs>

  <rect width="1200" height="320" rx="28" fill="#F8FAFC"/>

  <path d="M120 166C210 166 210 78 300 78C390 78 390 166 480 166C570 166 570 98 660 98C750 98 750 200 840 200C930 200 930 114 1020 114" stroke="url(#g)" stroke-width="5" stroke-linecap="round" stroke-linejoin="round" stroke-dasharray="10 10">
    <animate attributeName="stroke-dashoffset" values="0;20" dur="3s" repeatCount="indefinite"/>
  </path>

  <path d="M120 166C210 166 210 234 300 234C390 234 390 146 480 146C570 146 570 226 660 226C750 226 750 138 840 138C930 138 930 220 1020 220" stroke="#0F172A" stroke-width="4" stroke-linecap="round" stroke-linejoin="round" stroke-dasharray="8 12" opacity="0.5">
    <animate attributeName="stroke-dashoffset" values="0;20" dur="4s" repeatCount="indefinite"/>
  </path>

  <g filter="url(#glow)">
    <circle cx="120" cy="166" r="12" fill="#0F172A">
      <animate attributeName="r" values="10;14;10" dur="2.8s" repeatCount="indefinite"/>
    </circle>
    <circle cx="300" cy="78" r="11" fill="#0E7490">
      <animate attributeName="r" values="9;13;9" dur="2.6s" repeatCount="indefinite"/>
    </circle>
    <circle cx="480" cy="166" r="11" fill="#F59E0B">
      <animate attributeName="r" values="9;13;9" dur="2.4s" repeatCount="indefinite"/>
    </circle>
    <circle cx="660" cy="98" r="11" fill="#0E7490">
      <animate attributeName="r" values="9;13;9" dur="2.7s" repeatCount="indefinite"/>
    </circle>
    <circle cx="840" cy="200" r="11" fill="#0F172A">
      <animate attributeName="r" values="9;13;9" dur="2.5s" repeatCount="indefinite"/>
    </circle>
    <circle cx="1020" cy="114" r="12" fill="#F59E0B">
      <animate attributeName="r" values="10;14;10" dur="2.3s" repeatCount="indefinite"/>
    </circle>
  </g>

  <g stroke="#E2E8F0" stroke-width="2" opacity="0.95">
    <line x1="120" y1="166" x2="120" y2="258"/>
    <line x1="300" y1="78" x2="300" y2="36"/>
    <line x1="480" y1="166" x2="480" y2="258"/>
    <line x1="660" y1="98" x2="660" y2="40"/>
    <line x1="840" y1="200" x2="840" y2="260"/>
    <line x1="1020" y1="114" x2="1020" y2="42"/>
  </g>

  <g font-family="Inter, Arial, sans-serif" fill="#0F172A">
    <text x="74" y="292" font-size="18" font-weight="700">Süreç</text>
    <text x="248" y="292" font-size="18" font-weight="700">İnsan</text>
    <text x="428" y="292" font-size="18" font-weight="700">Kalite</text>
    <text x="604" y="292" font-size="18" font-weight="700">AI</text>
    <text x="786" y="292" font-size="18" font-weight="700">Kod</text>
    <text x="958" y="292" font-size="18" font-weight="700">Dönüşüm</text>
  </g>
</svg>
