<svg width="512" height="512" viewBox="0 0 512 512" fill="none" xmlns="http://www.w3.org/2000/svg">
  <rect width="512" height="512" rx="96" fill="#F8FAFC"/>
  <g stroke-linecap="round" stroke-linejoin="round">
    <path d="M124 256C124 183.099 183.099 124 256 124C328.901 124 388 183.099 388 256C388 328.901 328.901 388 256 388C183.099 388 124 328.901 124 256Z" stroke="#0E7490" stroke-width="20"/>
    <path d="M176 256C176 211.817 211.817 176 256 176" stroke="#F59E0B" stroke-width="20"/>
    <circle cx="176" cy="256" r="14" fill="#0E7490"/>
    <circle cx="256" cy="176" r="14" fill="#0E7490"/>
    <circle cx="336" cy="256" r="14" fill="#0E7490"/>
  </g>
  <path d="M120 256C120 180.889 180.889 120 256 120V392C180.889 392 120 331.111 120 256Z" fill="#0F172A"/>
  <path d="M276 178H314C357.078 178 392 212.922 392 256C392 299.078 357.078 334 314 334H276" stroke="#0F172A" stroke-width="24" stroke-linecap="round"/>
  <path d="M256 198C233.909 198 216 223.072 216 254C216 284.928 233.909 310 256 310" stroke="#F8FAFC" stroke-width="20" stroke-linecap="round"/>
  <circle cx="216" cy="226" r="10" fill="#F59E0B"/>
  <circle cx="216" cy="282" r="10" fill="#F59E0B"/>
  <circle cx="296" cy="256" r="10" fill="#F59E0B"/>
</svg>
